G04 --- HEADER BEGIN --- *
%TF.GenerationSoftware,LibrePCB,LibrePCB,0.1.5*%
%TF.CreationDate,2021-01-02T14:24:37*%
%TF.ProjectId,can2usb - default,565da67e-d1db-4e60-9fc1-0ba8a5c8bd0e,v1*%
%TF.Part,Single*%
%FSLAX66Y66*%
%MOMM*%
G01*
G74*
G04 --- HEADER END --- *
G04 --- APERTURE LIST BEGIN --- *
%ADD10R,1.0X1.1*%
%ADD11R,1.1X1.0*%
%ADD12O,1.587X2.19*%
%ADD13R,1.587X2.19*%
%ADD14R,1.1X0.22*%
%ADD15R,0.22X1.1*%
%ADD16R,0.75X1.25*%
%ADD17R,0.8X0.75*%
%ADD18O,4.0X2.54*%
%ADD19R,1.2X1.2*%
%ADD20R,0.75X0.8*%
%ADD21R,1.4X1.0*%
%ADD22R,1.8X1.6*%
%ADD23R,1.535X0.48*%
%ADD24R,1.1X0.6*%
%ADD25R,2.5X2.0*%
%ADD26R,2.3X0.5*%
%ADD27C,0.7*%
%ADD28C,0.5*%
%ADD29C,0.3*%
%ADD30C,0.0*%
G04 --- APERTURE LIST END --- *
G04 --- BOARD BEGIN --- *
D10*
X14605000Y13792000D03*
X14605000Y15492000D03*
D11*
X10580000Y12419500D03*
X12280000Y12419500D03*
D10*
X29415000Y14206000D03*
X29415000Y12506000D03*
D12*
X20955000Y1625500D03*
D13*
X23495000Y1625500D03*
D12*
X15875000Y1625500D03*
X18415000Y1625500D03*
D14*
X25263750Y8130000D03*
X25263750Y12130000D03*
X25263750Y11630000D03*
X16963750Y8130000D03*
D15*
X21863750Y5730000D03*
D14*
X16963750Y11630000D03*
X16963750Y7130000D03*
D15*
X18363750Y5730000D03*
D14*
X25263750Y9130000D03*
X25263750Y7130000D03*
D15*
X18363750Y14030000D03*
X22363750Y5730000D03*
D14*
X25263750Y11130000D03*
D15*
X22363750Y14030000D03*
X19863750Y14030000D03*
D14*
X16963750Y8630000D03*
X16963750Y11130000D03*
X16963750Y12130000D03*
D15*
X19363750Y14030000D03*
X20863750Y5730000D03*
X18863750Y14030000D03*
D14*
X16963750Y7630000D03*
D15*
X23863750Y14030000D03*
X20363750Y5730000D03*
D14*
X25263750Y8630000D03*
D15*
X21363750Y14030000D03*
X20863750Y14030000D03*
X18863750Y5730000D03*
D14*
X16963750Y9630000D03*
D15*
X23363750Y14030000D03*
D14*
X25263750Y12630000D03*
X25263750Y7630000D03*
D15*
X19363750Y5730000D03*
X22863750Y5730000D03*
X21863750Y14030000D03*
D14*
X16963750Y9130000D03*
X16963750Y10130000D03*
D15*
X20363750Y14030000D03*
D14*
X25263750Y9630000D03*
D15*
X23863750Y5730000D03*
D14*
X25263750Y10630000D03*
X16963750Y10630000D03*
D15*
X22863750Y14030000D03*
X23363750Y5730000D03*
X19863750Y5730000D03*
D14*
X16963750Y12630000D03*
X25263750Y10130000D03*
D15*
X21363750Y5730000D03*
D10*
X27666000Y10072000D03*
X27666000Y8372000D03*
D16*
X12405000Y10832000D03*
X10455000Y10832000D03*
D17*
X27825000Y5863000D03*
X27825000Y4313000D03*
D18*
X50000000Y3140000D03*
X50000000Y8220000D03*
X50000000Y13300000D03*
D19*
X3431250Y1466500D03*
X1331250Y1466500D03*
D20*
X6331250Y1466500D03*
X4781250Y1466500D03*
D21*
X44672166Y3986300D03*
X46872166Y4936300D03*
X44672166Y5886300D03*
D22*
X27548750Y15040250D03*
X27548750Y12240250D03*
D10*
X43884000Y7418000D03*
X43884000Y9118000D03*
D23*
X31043000Y11443000D03*
X31043000Y8903000D03*
X40507000Y2553000D03*
X40507000Y12713000D03*
X31043000Y3823000D03*
X40507000Y3823000D03*
X40507000Y13983000D03*
X40507000Y5093000D03*
X40507000Y8903000D03*
X40507000Y6363000D03*
X40507000Y10173000D03*
X40507000Y7633000D03*
X31043000Y12713000D03*
X31043000Y5093000D03*
X31043000Y10173000D03*
X40507000Y11443000D03*
X31043000Y6363000D03*
X31043000Y13983000D03*
X31043000Y2553000D03*
X31043000Y7633000D03*
D20*
X6331250Y14959750D03*
X4781250Y14959750D03*
D10*
X42294000Y7418000D03*
X42294000Y9118000D03*
D20*
X43586000Y11130000D03*
X45136000Y11130000D03*
X43586000Y13038000D03*
X45136000Y13038000D03*
D10*
X25599000Y15478000D03*
X25599000Y13778000D03*
D17*
X26394000Y4313000D03*
X26394000Y5863000D03*
D10*
X15398750Y8508000D03*
X15398750Y6808000D03*
X42294000Y11234000D03*
X42294000Y12934000D03*
D19*
X3431250Y14959750D03*
X1331250Y14959750D03*
D24*
X13147500Y8292000D03*
X10347500Y8292000D03*
X13147500Y9242000D03*
X10347500Y9242000D03*
X10347500Y7342000D03*
X13147500Y7342000D03*
D10*
X29256000Y10072000D03*
X29256000Y8372000D03*
D24*
X13147500Y15592000D03*
X10347500Y13692000D03*
X10347500Y14642000D03*
X10347500Y15592000D03*
X13147500Y13692000D03*
D25*
X2250000Y3770000D03*
X7750000Y12670000D03*
X7750000Y3770000D03*
X2250000Y12670000D03*
D26*
X7750000Y9020000D03*
X7750000Y9820000D03*
X7750000Y8220000D03*
X7750000Y6620000D03*
X7750000Y7420000D03*
D22*
X46746000Y11002000D03*
X46746000Y13802000D03*
D17*
X42135000Y2405000D03*
X42135000Y3955000D03*
D11*
X21011250Y15595000D03*
X19311250Y15595000D03*
X22803750Y4165000D03*
X24503750Y4165000D03*
D27*
X24009000Y9699000D03*
X18732500Y12261250D03*
X2063750Y6228750D03*
X22860000Y15594500D03*
X16986250Y14166250D03*
X32873500Y3990000D03*
X18732500Y9880000D03*
X46274500Y9417500D03*
X23098000Y7260500D03*
X8414000Y15753500D03*
X53340000Y15595000D03*
X32868750Y12908500D03*
X46678000Y975500D03*
X43262500Y3840500D03*
X53340000Y672500D03*
X33025500Y671000D03*
X22382750Y8531000D03*
X38737000Y6856500D03*
X32545500Y6383500D03*
X23653250Y11705250D03*
X20670000Y12084000D03*
X38889000Y15688500D03*
X7302500Y1466500D03*
X15160750Y10038750D03*
X25872250Y832000D03*
X14128750Y9085500D03*
X20796250Y8768750D03*
X7302500Y14959750D03*
X14526250Y12579250D03*
X42310000Y15596000D03*
X38737000Y3839000D03*
X13175000Y6228250D03*
X44843500Y14163500D03*
X18258500Y4322250D03*
X43179000Y2406000D03*
X21113750Y10276750D03*
X32863250Y15753500D03*
X29370250Y15597500D03*
X28416250Y7177750D03*
X45173500Y9395000D03*
X19843750Y6863250D03*
X59055000Y990000D03*
X24761750Y5418500D03*
X14128750Y7339500D03*
X21827750Y7577500D03*
X59055000Y15595000D03*
X5080000Y13213750D03*
X25241250Y6546500D03*
X7457250Y5593500D03*
X22542000Y11308250D03*
X27147750Y13544500D03*
X13176000Y11309000D03*
X27941500Y13544500D03*
X13731250Y11309000D03*
X47395500Y7020500D03*
X2063750Y10038750D03*
X12064250Y2421750D03*
X5080000Y3212500D03*
X38737000Y822000D03*
X38737000Y9874500D03*
X32390250Y8925500D03*
X23812250Y10752750D03*
D28*
X7750000Y9820000D02*
X8830000Y9820000D01*
X8830000Y9820000D02*
X9842000Y10832000D01*
X10455000Y10832000D02*
X9842000Y10832000D01*
D29*
X26394000Y5863000D02*
X26394000Y10176000D01*
X26394000Y5863000D02*
X27825000Y5863000D01*
X25940000Y10630000D02*
X26394000Y10176000D01*
X25263750Y10630000D02*
X25940000Y10630000D01*
X42135000Y11130000D02*
X42294000Y11234000D01*
X39278000Y11443000D02*
X39114000Y11607000D01*
X40339000Y13992000D02*
X40507000Y13983000D01*
X42135000Y11443000D02*
X42294000Y11234000D01*
X43586000Y11130000D02*
X42135000Y11130000D01*
X39114000Y13833000D02*
X39273000Y13992000D01*
X39114000Y11607000D02*
X39114000Y13833000D01*
X40507000Y11443000D02*
X42135000Y11443000D01*
X39273000Y13992000D02*
X40339000Y13992000D01*
X40507000Y11443000D02*
X39278000Y11443000D01*
X41976000Y3823000D02*
X42135000Y3955000D01*
X40507000Y3823000D02*
X41976000Y3823000D01*
X22863750Y5730000D02*
X22863750Y7026250D01*
X22863750Y7026250D02*
X23098000Y7260500D01*
X20363750Y14030000D02*
X20363750Y14947500D01*
X20363750Y14947500D02*
X21011250Y15595000D01*
X10327500Y9222000D02*
X10347500Y9242000D01*
X9338000Y9020000D02*
X9540000Y9222000D01*
X7750000Y9020000D02*
X9338000Y9020000D01*
X9540000Y9222000D02*
X10327500Y9222000D01*
X23887500Y11630000D02*
X23653250Y11705250D01*
X31043000Y6363000D02*
X32525000Y6363000D01*
X25263750Y11630000D02*
X23887500Y11630000D01*
X32525000Y6363000D02*
X32545500Y6383500D01*
X46587000Y11130000D02*
X46746000Y11002000D01*
X45136000Y11130000D02*
X46587000Y11130000D01*
X3431250Y1466500D02*
X4781250Y1466500D01*
X7302500Y1466500D02*
X6331250Y1466500D01*
X15569500Y9630000D02*
X15160750Y10038750D01*
X16963750Y9630000D02*
X15569500Y9630000D01*
X45136000Y13038000D02*
X44977000Y13018000D01*
X44977000Y13018000D02*
X44361000Y12402000D01*
X40507000Y8903000D02*
X41976000Y8903000D01*
X41976000Y8903000D02*
X42294000Y9118000D01*
X44361000Y9754000D02*
X43884000Y9118000D01*
X42294000Y9118000D02*
X43884000Y9118000D01*
X44361000Y12402000D02*
X44361000Y9754000D01*
X46746000Y13038000D02*
X46746000Y13802000D01*
X45136000Y13038000D02*
X46746000Y13038000D01*
X21863750Y6510000D02*
X20796250Y7577500D01*
X13967250Y9242000D02*
X14128750Y9085500D01*
X20796250Y8768750D02*
X20796250Y7577500D01*
X21863750Y5730000D02*
X21863750Y6510000D01*
X13147500Y9242000D02*
X13967250Y9242000D01*
X7302500Y14959750D02*
X6331250Y14959750D01*
X15820500Y10569500D02*
X15820500Y11289000D01*
X16963750Y10130000D02*
X16260000Y10130000D01*
X16260000Y10130000D02*
X15820500Y10569500D01*
X15820500Y11289000D02*
X14530250Y12579250D01*
X14530250Y12579250D02*
X14526250Y12579250D01*
X44672166Y5886300D02*
X44679000Y6360000D01*
X44668866Y5883000D02*
X44672166Y5886300D01*
X42135000Y5883000D02*
X44668866Y5883000D01*
X50000000Y11681000D02*
X44679000Y6360000D01*
X50000000Y13300000D02*
X50000000Y11681000D01*
X41655000Y6363000D02*
X42135000Y5883000D01*
X40507000Y6363000D02*
X41655000Y6363000D01*
X40507000Y12713000D02*
X42135000Y12713000D01*
X42135000Y12713000D02*
X42294000Y12934000D01*
X42135000Y13038000D02*
X42294000Y12934000D01*
X43586000Y13038000D02*
X42135000Y13038000D01*
X40507000Y7633000D02*
X41976000Y7633000D01*
X42294000Y7418000D02*
X43884000Y7418000D01*
X41976000Y7633000D02*
X42294000Y7418000D01*
X23863750Y4805000D02*
X24503750Y4165000D01*
X19843750Y9562500D02*
X19843750Y8768750D01*
X27666000Y10072000D02*
X27293000Y10072000D01*
X23863750Y8558750D02*
X22860000Y9562500D01*
X15720750Y7130000D02*
X15398750Y6808000D01*
X19843750Y9562500D02*
X22860000Y9562500D01*
D28*
X19311250Y15595000D02*
X14758000Y15595000D01*
D29*
X25599000Y12948000D02*
X25599000Y13778000D01*
X23863750Y5730000D02*
X23863750Y8558750D01*
X19843750Y12896750D02*
X19843750Y9562500D01*
D28*
X14346000Y15592000D02*
X14605000Y15492000D01*
X13147500Y15592000D02*
X14346000Y15592000D01*
D29*
X23863750Y5730000D02*
X23863750Y4805000D01*
X31043000Y10173000D02*
X29357000Y10173000D01*
X26166000Y12948000D02*
X26235000Y12879000D01*
X24651750Y4313000D02*
X26394000Y4313000D01*
X25281000Y12948000D02*
X25599000Y12948000D01*
X19895000Y12948000D02*
X19843750Y12896750D01*
X19863750Y15042500D02*
X19311250Y15595000D01*
X23863750Y14030000D02*
X23863750Y13055500D01*
X23971250Y12948000D02*
X19895000Y12948000D01*
X23863750Y13055500D02*
X23971250Y12948000D01*
X24503750Y4165000D02*
X24503750Y2634250D01*
X26235000Y12879000D02*
X26235000Y11130000D01*
D28*
X14605000Y15492000D02*
X14543000Y15492000D01*
D29*
X25281000Y12948000D02*
X23971250Y12948000D01*
X25281000Y12948000D02*
X26166000Y12948000D01*
X16963750Y7130000D02*
X15720750Y7130000D01*
X25263750Y12630000D02*
X25281000Y12630000D01*
X29256000Y10072000D02*
X27666000Y10072000D01*
X19863750Y14030000D02*
X19863750Y15042500D01*
X16963750Y7130000D02*
X18205000Y7130000D01*
X18205000Y7130000D02*
X19843750Y8768750D01*
D28*
X14543000Y15492000D02*
X14758000Y15595000D01*
D29*
X24503750Y2634250D02*
X23495000Y1625500D01*
X19843750Y12896750D02*
X19843750Y14010000D01*
X19843750Y14010000D02*
X19863750Y14030000D01*
X24503750Y4165000D02*
X24651750Y4313000D01*
X27293000Y10072000D02*
X26235000Y11130000D01*
X29357000Y10173000D02*
X29256000Y10072000D01*
X25281000Y12630000D02*
X25281000Y12948000D01*
X9381000Y7950000D02*
X9381000Y7473000D01*
X7750000Y8220000D02*
X9111000Y8220000D01*
X9540000Y7314000D02*
X10319500Y7314000D01*
X10319500Y7314000D02*
X10347500Y7342000D01*
X9381000Y7473000D02*
X9540000Y7314000D01*
X9111000Y8220000D02*
X9381000Y7950000D01*
X16963750Y7630000D02*
X16276750Y7630000D01*
X16276750Y7630000D02*
X15398750Y8508000D01*
X22363750Y5730000D02*
X22363750Y7041500D01*
X13147500Y7342000D02*
X14128750Y7342000D01*
X14128750Y7342000D02*
X14128750Y7339500D01*
X22363750Y7041500D02*
X21827750Y7577500D01*
X25263750Y7130000D02*
X25263750Y6523750D01*
X25263750Y6523750D02*
X25241250Y6546500D01*
X23363750Y5730000D02*
X23363750Y4725000D01*
X23363750Y4725000D02*
X22803750Y4165000D01*
X20955000Y1625500D02*
X20955000Y2895000D01*
X22225000Y4165000D02*
X20955000Y2895000D01*
X22803750Y4165000D02*
X22225000Y4165000D01*
X45792000Y3975000D02*
X44683466Y3975000D01*
X43243000Y5093000D02*
X44361000Y3975000D01*
X50000000Y3140000D02*
X46627000Y3140000D01*
X44683466Y3975000D02*
X44672166Y3986300D01*
X44672166Y3986300D02*
X44361000Y3975000D01*
X46627000Y3140000D02*
X45792000Y3975000D01*
X40507000Y5093000D02*
X43243000Y5093000D01*
D28*
X12139500Y8292000D02*
X11845500Y8586000D01*
X12405000Y10355000D02*
X12405000Y10832000D01*
X12405000Y11309000D02*
X12280000Y11275000D01*
X13147500Y8292000D02*
X12139500Y8292000D01*
X27496500Y12029000D02*
X27507000Y12177500D01*
X27507000Y12506000D02*
X29415000Y12506000D01*
X27496500Y12029000D02*
X27548750Y12240250D01*
X12405000Y11309000D02*
X12405000Y10832000D01*
X27507000Y12177500D02*
X27507000Y12506000D01*
X27507000Y12177500D02*
X27507000Y13544500D01*
X12280000Y12683000D02*
X12280000Y12419500D01*
X13176000Y11309000D02*
X12405000Y11309000D01*
X12280000Y11275000D02*
X12280000Y12419500D01*
X29415000Y12506000D02*
X29415000Y11925000D01*
X27507000Y13544500D02*
X27147750Y13544500D01*
X11845500Y8586000D02*
X11845500Y9795500D01*
X31043000Y11443000D02*
X30001000Y11443000D01*
X11845500Y9795500D02*
X12405000Y10355000D01*
X11199500Y15592000D02*
X11766000Y15025500D01*
X29897000Y11443000D02*
X29415000Y11925000D01*
X11766000Y15025500D02*
X11766000Y13197000D01*
X11766000Y13197000D02*
X12280000Y12683000D01*
X27507000Y13544500D02*
X27941500Y13544500D01*
X30001000Y11443000D02*
X29897000Y11443000D01*
X13176000Y11309000D02*
X13731250Y11309000D01*
X10347500Y15592000D02*
X11199500Y15592000D01*
D29*
X4781250Y14959750D02*
X3431250Y14959750D01*
X31043000Y8903000D02*
X32367750Y8903000D01*
X25263750Y11130000D02*
X24189500Y11130000D01*
X32367750Y8903000D02*
X32390250Y8925500D01*
X24189500Y11130000D02*
X23812250Y10752750D01*
D30*
G36*
X59659327Y319500D02*
X59700000Y400000D01*
X59700000Y16040000D01*
X59680500Y16099327D01*
X59600000Y16140000D01*
X38260000Y16140000D01*
X38200673Y16120500D01*
X38160000Y16040000D01*
X38160000Y400000D01*
X38179500Y340673D01*
X38260000Y300000D01*
X49271962Y300000D01*
X49271962Y1570000D01*
X49268048Y1570154D01*
X49028316Y1589021D01*
X49020573Y1590247D01*
X48788660Y1645925D01*
X48781215Y1648344D01*
X48560863Y1739616D01*
X48553886Y1743171D01*
X48350527Y1867790D01*
X48344191Y1872393D01*
X48162830Y2027290D01*
X48157290Y2032830D01*
X48002393Y2214191D01*
X47997790Y2220527D01*
X47873171Y2423886D01*
X47869616Y2430863D01*
X47787849Y2628268D01*
X47747130Y2675617D01*
X47695461Y2690000D01*
X46630570Y2690000D01*
X46623465Y2690508D01*
X46582889Y2696342D01*
X46575792Y2697105D01*
X46538480Y2699774D01*
X46519518Y2703899D01*
X46512314Y2705737D01*
X46493717Y2711198D01*
X46459681Y2726742D01*
X46453084Y2729474D01*
X46418037Y2742545D01*
X46401025Y2751834D01*
X46394635Y2755626D01*
X46378300Y2766124D01*
X46350028Y2790621D01*
X46344472Y2795099D01*
X46311655Y2819667D01*
X46306283Y2824321D01*
X45842877Y3287727D01*
X45787137Y3315889D01*
X45725559Y3305491D01*
X45682158Y3260587D01*
X45672166Y3217016D01*
X45672166Y3202313D01*
X45670600Y3197548D01*
X45648338Y3186300D01*
X43688179Y3186300D01*
X43683414Y3187866D01*
X43672166Y3210128D01*
X43672166Y3986016D01*
X43642877Y4056727D01*
X43085893Y4613711D01*
X43015182Y4643000D01*
X42935000Y4643000D01*
X42875673Y4623500D01*
X42835000Y4543000D01*
X42835000Y3296013D01*
X42833434Y3291248D01*
X42811172Y3280000D01*
X41444609Y3280000D01*
X41425873Y3283000D01*
X39455513Y3283000D01*
X39450748Y3284566D01*
X39439500Y3306828D01*
X39439500Y4346987D01*
X39441066Y4351751D01*
X39472605Y4367686D01*
X39516764Y4411845D01*
X39526113Y4473591D01*
X39497007Y4528844D01*
X39458735Y4551941D01*
X39450748Y4554566D01*
X39439500Y4576828D01*
X39439500Y5616987D01*
X39441066Y5621751D01*
X39472605Y5637686D01*
X39516764Y5681845D01*
X39526113Y5743591D01*
X39497007Y5798844D01*
X39458735Y5821941D01*
X39450748Y5824566D01*
X39439500Y5846828D01*
X39439500Y6886987D01*
X39441066Y6891752D01*
X39463328Y6903000D01*
X41558487Y6903000D01*
X41563252Y6901434D01*
X41580765Y6866773D01*
X41624924Y6822614D01*
X41655786Y6812887D01*
X41699106Y6806658D01*
X41706205Y6805895D01*
X41743517Y6803227D01*
X41762468Y6799104D01*
X41769672Y6797265D01*
X41788284Y6791801D01*
X41822306Y6776264D01*
X41828898Y6773534D01*
X41863957Y6760457D01*
X41880996Y6751152D01*
X41887366Y6747373D01*
X41903694Y6736880D01*
X41931967Y6712381D01*
X41937524Y6707902D01*
X41970345Y6683332D01*
X41975722Y6678673D01*
X42292106Y6362289D01*
X42362817Y6333000D01*
X43572166Y6333000D01*
X43631493Y6352500D01*
X43672166Y6433000D01*
X43672166Y6670287D01*
X43673732Y6675052D01*
X43695994Y6686300D01*
X44327482Y6686300D01*
X44398193Y6715589D01*
X49248816Y11566212D01*
X49276978Y11621952D01*
X49266580Y11683530D01*
X49221676Y11726931D01*
X49185951Y11736615D01*
X49028316Y11749021D01*
X49020573Y11750247D01*
X48788660Y11805925D01*
X48781215Y11808344D01*
X48560863Y11899616D01*
X48553886Y11903171D01*
X48350527Y12027790D01*
X48344191Y12032393D01*
X48162830Y12187290D01*
X48157290Y12192830D01*
X48002393Y12374191D01*
X47997790Y12380527D01*
X47873171Y12583886D01*
X47869616Y12590863D01*
X47849152Y12640268D01*
X47808433Y12687617D01*
X47756764Y12702000D01*
X47076412Y12702000D01*
X47022357Y12686131D01*
X47019638Y12684384D01*
X47008208Y12675828D01*
X46994695Y12664119D01*
X46982785Y12656465D01*
X46966513Y12649034D01*
X46953989Y12642195D01*
X46938957Y12632534D01*
X46926071Y12626650D01*
X46908916Y12621612D01*
X46895552Y12616627D01*
X46879288Y12609200D01*
X46865699Y12605210D01*
X46848003Y12602666D01*
X46834060Y12599633D01*
X46816903Y12594595D01*
X46802888Y12592580D01*
X46785006Y12592580D01*
X46770775Y12591562D01*
X46749535Y12588508D01*
X46742430Y12588000D01*
X45911000Y12588000D01*
X45851673Y12568500D01*
X45811000Y12488000D01*
X45811000Y12354013D01*
X45809434Y12349248D01*
X45787172Y12338000D01*
X44974817Y12338000D01*
X44904106Y12308711D01*
X44840289Y12244894D01*
X44811000Y12174183D01*
X44811000Y9757570D01*
X44810492Y9750466D01*
X44810195Y9748401D01*
X44809639Y9733022D01*
X44808297Y9714500D01*
X44800363Y9678185D01*
X44799076Y9671072D01*
X44793790Y9634304D01*
X44788544Y9616440D01*
X44785558Y9607482D01*
X44779050Y9590082D01*
X44761216Y9557492D01*
X44757977Y9551028D01*
X44742537Y9517219D01*
X44732491Y9501588D01*
X44723707Y9488949D01*
X44722716Y9487137D01*
X44718859Y9481148D01*
X44704000Y9461336D01*
X44684000Y9401335D01*
X44684000Y8284013D01*
X44682434Y8279248D01*
X44660172Y8268000D01*
X41510013Y8268000D01*
X41505247Y8269566D01*
X41485780Y8308096D01*
X41441621Y8352255D01*
X41396526Y8363000D01*
X39455513Y8363000D01*
X39450748Y8364566D01*
X39439500Y8386828D01*
X39439500Y9426987D01*
X39441066Y9431751D01*
X39472605Y9447686D01*
X39516764Y9491845D01*
X39526113Y9553591D01*
X39497007Y9608844D01*
X39458735Y9631941D01*
X39450748Y9634566D01*
X39439500Y9656828D01*
X39439500Y10696987D01*
X39441066Y10701751D01*
X39472605Y10717686D01*
X39516764Y10761845D01*
X39526113Y10823591D01*
X39497007Y10878844D01*
X39458735Y10901941D01*
X39450749Y10904566D01*
X39433808Y10938096D01*
X39389649Y10982255D01*
X39344553Y10993000D01*
X39281570Y10993000D01*
X39274466Y10993508D01*
X39233858Y10999347D01*
X39226759Y11000110D01*
X39189484Y11002775D01*
X39170482Y11006909D01*
X39163315Y11008738D01*
X39144711Y11014200D01*
X39110652Y11029755D01*
X39104055Y11032487D01*
X39069042Y11045546D01*
X39051981Y11054861D01*
X39045602Y11058646D01*
X39029305Y11069119D01*
X39001005Y11093641D01*
X38995447Y11098120D01*
X38962664Y11122661D01*
X38957274Y11127331D01*
X38798327Y11286278D01*
X38793662Y11291662D01*
X38769110Y11324459D01*
X38764631Y11330017D01*
X38740117Y11358308D01*
X38729650Y11374595D01*
X38725839Y11381017D01*
X38716546Y11398037D01*
X38703474Y11433085D01*
X38700742Y11439681D01*
X38685198Y11473717D01*
X38679737Y11492315D01*
X38677897Y11499524D01*
X38673774Y11518480D01*
X38671106Y11555787D01*
X38670343Y11562886D01*
X38664508Y11603466D01*
X38664000Y11610570D01*
X38664000Y13829430D01*
X38664508Y13836535D01*
X38670344Y13877124D01*
X38671107Y13884221D01*
X38673775Y13921523D01*
X38677904Y13940504D01*
X38679732Y13947664D01*
X38685199Y13966282D01*
X38700744Y14000322D01*
X38703475Y14006916D01*
X38716547Y14041963D01*
X38725846Y14058993D01*
X38729650Y14065404D01*
X38740117Y14081692D01*
X38764627Y14109977D01*
X38769107Y14115537D01*
X38793657Y14148332D01*
X38798327Y14153722D01*
X38952278Y14307673D01*
X38957661Y14312338D01*
X38990465Y14336894D01*
X38996023Y14341373D01*
X39024303Y14365878D01*
X39040622Y14376365D01*
X39046986Y14380141D01*
X39064044Y14389455D01*
X39099085Y14402525D01*
X39105681Y14405257D01*
X39139717Y14420801D01*
X39158326Y14426265D01*
X39165511Y14428099D01*
X39184478Y14432225D01*
X39221781Y14434893D01*
X39228879Y14435656D01*
X39269466Y14441492D01*
X39276570Y14442000D01*
X39345745Y14442000D01*
X39405072Y14461500D01*
X39440745Y14510775D01*
X39441066Y14511752D01*
X39463328Y14523000D01*
X41558487Y14523000D01*
X41563252Y14521434D01*
X41574500Y14499172D01*
X41574500Y13884000D01*
X41594000Y13824673D01*
X41674500Y13784000D01*
X43077987Y13784000D01*
X43090467Y13779898D01*
X43121620Y13748746D01*
X43166716Y13738000D01*
X44244987Y13738000D01*
X44249752Y13736434D01*
X44271746Y13692904D01*
X44315905Y13648745D01*
X44377651Y13639396D01*
X44432903Y13668502D01*
X44456000Y13706775D01*
X44462566Y13726752D01*
X44484828Y13738000D01*
X45446000Y13738000D01*
X45505327Y13757500D01*
X45546000Y13838000D01*
X45546000Y14885987D01*
X45547566Y14890752D01*
X45569828Y14902000D01*
X47929987Y14902000D01*
X47934752Y14900434D01*
X47946000Y14878172D01*
X47946000Y14430843D01*
X47965500Y14371516D01*
X48016395Y14335326D01*
X48078836Y14336388D01*
X48122040Y14365898D01*
X48157283Y14407162D01*
X48162830Y14412709D01*
X48344191Y14567606D01*
X48350527Y14572209D01*
X48553886Y14696828D01*
X48560863Y14700383D01*
X48781215Y14791655D01*
X48788660Y14794074D01*
X49020573Y14849752D01*
X49028316Y14850978D01*
X49268048Y14869846D01*
X49271961Y14870000D01*
X50728039Y14870000D01*
X50731952Y14869846D01*
X50971683Y14850978D01*
X50979426Y14849752D01*
X51211339Y14794074D01*
X51218784Y14791655D01*
X51439136Y14700383D01*
X51446113Y14696828D01*
X51649472Y14572209D01*
X51655808Y14567606D01*
X51837169Y14412709D01*
X51842709Y14407169D01*
X51997606Y14225808D01*
X52002209Y14219472D01*
X52126828Y14016113D01*
X52130383Y14009136D01*
X52221655Y13788784D01*
X52224074Y13781339D01*
X52279752Y13549426D01*
X52280978Y13541683D01*
X52299692Y13303913D01*
X52299692Y13296087D01*
X52280978Y13058316D01*
X52279752Y13050573D01*
X52224074Y12818660D01*
X52221655Y12811215D01*
X52130383Y12590863D01*
X52126828Y12583886D01*
X52002209Y12380527D01*
X51997606Y12374191D01*
X51842709Y12192830D01*
X51837169Y12187290D01*
X51655808Y12032393D01*
X51649472Y12027790D01*
X51446113Y11903171D01*
X51439136Y11899616D01*
X51218784Y11808344D01*
X51211339Y11805925D01*
X50979426Y11750247D01*
X50971683Y11749021D01*
X50731952Y11730154D01*
X50728038Y11730000D01*
X50543695Y11730000D01*
X50484368Y11710500D01*
X50444712Y11644229D01*
X50443655Y11636876D01*
X50442893Y11629780D01*
X50440225Y11592481D01*
X50436100Y11573518D01*
X50434262Y11566314D01*
X50428801Y11547717D01*
X50413257Y11513681D01*
X50410525Y11507084D01*
X50397454Y11472037D01*
X50388165Y11455025D01*
X50384369Y11448629D01*
X50373881Y11432308D01*
X50349378Y11404030D01*
X50344899Y11398470D01*
X50320343Y11365667D01*
X50315673Y11360277D01*
X45701455Y6746059D01*
X45672166Y6675348D01*
X45672166Y5102313D01*
X45670600Y5097548D01*
X45648338Y5086300D01*
X44127518Y5086300D01*
X44068191Y5066800D01*
X44032001Y5015905D01*
X44033063Y4953464D01*
X44056807Y4915589D01*
X44156807Y4815589D01*
X44227518Y4786300D01*
X45656153Y4786300D01*
X45660918Y4784734D01*
X45672166Y4762472D01*
X45672166Y4525000D01*
X45691666Y4465673D01*
X45772166Y4425000D01*
X45788430Y4425000D01*
X45795534Y4424492D01*
X45836121Y4418656D01*
X45843219Y4417893D01*
X45880519Y4415225D01*
X45899481Y4411100D01*
X45906685Y4409262D01*
X45925282Y4403801D01*
X45959318Y4388257D01*
X45965915Y4385525D01*
X46000960Y4372455D01*
X46017992Y4363154D01*
X46024373Y4359368D01*
X46040695Y4348879D01*
X46068962Y4324386D01*
X46074518Y4319908D01*
X46107348Y4295331D01*
X46112718Y4290678D01*
X46784107Y3619289D01*
X46854818Y3590000D01*
X47695461Y3590000D01*
X47754788Y3609500D01*
X47787849Y3651732D01*
X47869616Y3849136D01*
X47873171Y3856113D01*
X47997790Y4059472D01*
X48002393Y4065808D01*
X48157290Y4247169D01*
X48162830Y4252709D01*
X48344191Y4407606D01*
X48350527Y4412209D01*
X48553886Y4536828D01*
X48560863Y4540383D01*
X48781215Y4631655D01*
X48788660Y4634074D01*
X49020573Y4689752D01*
X49028316Y4690978D01*
X49268048Y4709846D01*
X49271961Y4710000D01*
X50728039Y4710000D01*
X50731952Y4709846D01*
X50971683Y4690978D01*
X50979426Y4689752D01*
X51211339Y4634074D01*
X51218784Y4631655D01*
X51439136Y4540383D01*
X51446113Y4536828D01*
X51649472Y4412209D01*
X51655808Y4407606D01*
X51837169Y4252709D01*
X51842709Y4247169D01*
X51997606Y4065808D01*
X52002209Y4059472D01*
X52126828Y3856113D01*
X52130383Y3849136D01*
X52221655Y3628784D01*
X52224074Y3621339D01*
X52279752Y3389426D01*
X52280978Y3381683D01*
X52299692Y3143913D01*
X52299692Y3136087D01*
X52280978Y2898316D01*
X52279752Y2890573D01*
X52224074Y2658660D01*
X52221655Y2651215D01*
X52130383Y2430863D01*
X52126828Y2423886D01*
X52002209Y2220527D01*
X51997606Y2214191D01*
X51842709Y2032830D01*
X51837169Y2027290D01*
X51655808Y1872393D01*
X51649472Y1867790D01*
X51446113Y1743171D01*
X51439136Y1739616D01*
X51218784Y1648344D01*
X51211339Y1645925D01*
X50979426Y1590247D01*
X50971683Y1589021D01*
X50731952Y1570154D01*
X50728038Y1570000D01*
X49271962Y1570000D01*
X49271962Y300000D01*
X59600000Y300000D01*
X59659327Y319500D01*
G37*
G36*
X15559488Y219500D02*
X15595678Y270395D01*
X15594616Y332836D01*
X15529190Y395694D01*
X15499506Y404699D01*
X15490468Y408443D01*
X15327375Y495617D01*
X15319244Y501050D01*
X15176287Y618372D01*
X15169372Y625287D01*
X15052050Y768244D01*
X15046617Y776375D01*
X14959443Y939468D01*
X14955699Y948506D01*
X14902014Y1125479D01*
X14900108Y1135061D01*
X14881740Y1321560D01*
X14881500Y1326457D01*
X14881500Y1924543D01*
X14881740Y1929440D01*
X14900108Y2115938D01*
X14902014Y2125520D01*
X14955699Y2302493D01*
X14959443Y2311531D01*
X15046617Y2474624D01*
X15052050Y2482755D01*
X15169372Y2625712D01*
X15176287Y2632627D01*
X15319244Y2749949D01*
X15327375Y2755382D01*
X15490468Y2842556D01*
X15499506Y2846300D01*
X15676475Y2899984D01*
X15686070Y2901892D01*
X15870106Y2920018D01*
X15879894Y2920018D01*
X16063929Y2901892D01*
X16073524Y2899984D01*
X16250493Y2846300D01*
X16259531Y2842556D01*
X16422624Y2755382D01*
X16430755Y2749949D01*
X16573712Y2632627D01*
X16580627Y2625712D01*
X16697949Y2482755D01*
X16703382Y2474624D01*
X16790556Y2311531D01*
X16794300Y2302493D01*
X16847984Y2125524D01*
X16849892Y2115929D01*
X16868259Y1929443D01*
X16868500Y1924550D01*
X16868500Y1326450D01*
X16868259Y1321557D01*
X16849892Y1135070D01*
X16847984Y1125475D01*
X16794300Y948506D01*
X16790556Y939468D01*
X16703382Y776375D01*
X16697949Y768244D01*
X16580627Y625287D01*
X16573712Y618372D01*
X16430755Y501050D01*
X16422624Y495617D01*
X16259531Y408443D01*
X16250493Y404699D01*
X16220809Y395694D01*
X16169697Y359812D01*
X16149840Y300603D01*
X16168982Y241159D01*
X16249838Y200000D01*
X18040161Y200000D01*
X18099488Y219500D01*
X18135678Y270395D01*
X18134616Y332836D01*
X18069190Y395694D01*
X18039506Y404699D01*
X18030468Y408443D01*
X17867375Y495617D01*
X17859244Y501050D01*
X17716287Y618372D01*
X17709372Y625287D01*
X17592050Y768244D01*
X17586617Y776375D01*
X17499443Y939468D01*
X17495699Y948506D01*
X17442014Y1125479D01*
X17440108Y1135061D01*
X17421740Y1321560D01*
X17421500Y1326457D01*
X17421500Y1924543D01*
X17421740Y1929440D01*
X17440108Y2115938D01*
X17442014Y2125520D01*
X17495699Y2302493D01*
X17499443Y2311531D01*
X17586617Y2474624D01*
X17592050Y2482755D01*
X17709372Y2625712D01*
X17716287Y2632627D01*
X17859244Y2749949D01*
X17867375Y2755382D01*
X18030468Y2842556D01*
X18039506Y2846300D01*
X18216475Y2899984D01*
X18226070Y2901892D01*
X18410106Y2920018D01*
X18419894Y2920018D01*
X18603929Y2901892D01*
X18613524Y2899984D01*
X18790493Y2846300D01*
X18799531Y2842556D01*
X18962624Y2755382D01*
X18970755Y2749949D01*
X19113712Y2632627D01*
X19120627Y2625712D01*
X19237949Y2482755D01*
X19243382Y2474624D01*
X19330556Y2311531D01*
X19334300Y2302493D01*
X19387984Y2125524D01*
X19389892Y2115929D01*
X19408259Y1929443D01*
X19408500Y1924550D01*
X19408500Y1326450D01*
X19408259Y1321557D01*
X19389892Y1135070D01*
X19387984Y1125475D01*
X19334300Y948506D01*
X19330556Y939468D01*
X19243382Y776375D01*
X19237949Y768244D01*
X19120627Y625287D01*
X19113712Y618372D01*
X18970755Y501050D01*
X18962624Y495617D01*
X18799531Y408443D01*
X18790493Y404699D01*
X18760809Y395694D01*
X18709697Y359812D01*
X18689840Y300603D01*
X18708982Y241159D01*
X18789838Y200000D01*
X22416910Y200000D01*
X22476237Y219500D01*
X22512427Y270395D01*
X22506165Y345096D01*
X22501500Y354329D01*
X22501500Y2904487D01*
X22503066Y2909252D01*
X22525328Y2920500D01*
X24053750Y2920500D01*
X24113077Y2940000D01*
X24153750Y3020500D01*
X24153750Y3365000D01*
X24134250Y3424327D01*
X24053750Y3465000D01*
X23769763Y3465000D01*
X23764998Y3466566D01*
X23753750Y3488828D01*
X23753750Y4378603D01*
X23724461Y4449314D01*
X23619039Y4554736D01*
X23613960Y4560684D01*
X23604701Y4573427D01*
X23594510Y4585359D01*
X23586155Y4593714D01*
X23577021Y4606285D01*
X23571666Y4616796D01*
X23563467Y4630176D01*
X23556525Y4639731D01*
X23549465Y4653587D01*
X23545814Y4664823D01*
X23539808Y4679321D01*
X23534454Y4689830D01*
X23529647Y4704620D01*
X23527800Y4716282D01*
X23524139Y4731533D01*
X23520491Y4742762D01*
X23518059Y4758118D01*
X23518059Y4769923D01*
X23516828Y4785566D01*
X23514365Y4801118D01*
X23513750Y4808931D01*
X23513750Y6693230D01*
X23494250Y6752557D01*
X23443355Y6788747D01*
X23374312Y6781020D01*
X23373000Y6784186D01*
X23275481Y6743792D01*
X23228132Y6703072D01*
X23213750Y6651404D01*
X23213750Y5733931D01*
X23213135Y5726119D01*
X23197850Y5629618D01*
X23193045Y5614829D01*
X23184650Y5598353D01*
X23173750Y5552953D01*
X23173750Y4996013D01*
X23172184Y4991248D01*
X23149922Y4980000D01*
X18069763Y4980000D01*
X18064998Y4981566D01*
X18053750Y5003828D01*
X18053750Y6463987D01*
X18055316Y6468752D01*
X18077578Y6480000D01*
X21157353Y6480000D01*
X21216680Y6499500D01*
X21252870Y6550395D01*
X21251808Y6612836D01*
X21228064Y6650711D01*
X20551539Y7327236D01*
X20546460Y7333184D01*
X20537201Y7345927D01*
X20527010Y7357859D01*
X20518655Y7366214D01*
X20509521Y7378785D01*
X20504166Y7389296D01*
X20495967Y7402676D01*
X20489025Y7412231D01*
X20481965Y7426087D01*
X20478314Y7437323D01*
X20472308Y7451821D01*
X20466954Y7462330D01*
X20462147Y7477120D01*
X20460300Y7488782D01*
X20456639Y7504033D01*
X20452991Y7515262D01*
X20450559Y7530618D01*
X20450559Y7542423D01*
X20449328Y7558066D01*
X20446865Y7573618D01*
X20446250Y7581431D01*
X20446250Y8300721D01*
X20416961Y8371432D01*
X20403347Y8385046D01*
X20323925Y8488551D01*
X20317427Y8499806D01*
X20299349Y8543448D01*
X20258629Y8590796D01*
X20197759Y8604754D01*
X20126060Y8563956D01*
X20121342Y8557462D01*
X20112996Y8549116D01*
X20102805Y8537183D01*
X20093545Y8524438D01*
X20088466Y8518491D01*
X18455259Y6885284D01*
X18449312Y6880205D01*
X18436567Y6870945D01*
X18424634Y6860754D01*
X18416286Y6852406D01*
X18403716Y6843273D01*
X18393197Y6837913D01*
X18379821Y6829716D01*
X18370264Y6822773D01*
X18356412Y6815715D01*
X18345176Y6812064D01*
X18330678Y6806058D01*
X18320169Y6800704D01*
X18305379Y6795897D01*
X18293717Y6794050D01*
X18278466Y6790389D01*
X18267237Y6786741D01*
X18251881Y6784309D01*
X18240077Y6784309D01*
X18224432Y6783078D01*
X18208879Y6780614D01*
X18201070Y6780000D01*
X16198750Y6780000D01*
X16139423Y6760500D01*
X16098750Y6680000D01*
X16098750Y6074013D01*
X16097184Y6069248D01*
X16074922Y6058000D01*
X14714763Y6058000D01*
X14709998Y6059566D01*
X14698750Y6081828D01*
X14698750Y6892005D01*
X14679250Y6951332D01*
X14628355Y6987522D01*
X14565914Y6986460D01*
X14527785Y6958923D01*
X14526282Y6960426D01*
X14512453Y6946597D01*
X14408949Y6867175D01*
X14397698Y6860679D01*
X14277150Y6810746D01*
X14264608Y6807385D01*
X14135245Y6790355D01*
X14122255Y6790355D01*
X13992891Y6807385D01*
X13980350Y6810746D01*
X13923274Y6834388D01*
X13885005Y6842000D01*
X12413513Y6842000D01*
X12408748Y6843566D01*
X12397500Y6865828D01*
X12397500Y7742000D01*
X12378000Y7801327D01*
X12297500Y7842000D01*
X12143070Y7842000D01*
X12135966Y7842508D01*
X12095358Y7848347D01*
X12088259Y7849110D01*
X12050984Y7851775D01*
X12031982Y7855909D01*
X12024815Y7857738D01*
X12006211Y7863200D01*
X11972152Y7878755D01*
X11965555Y7881487D01*
X11930542Y7894546D01*
X11913481Y7903861D01*
X11907102Y7907646D01*
X11890805Y7918119D01*
X11862505Y7942641D01*
X11856947Y7947120D01*
X11824164Y7971661D01*
X11818774Y7976331D01*
X11529827Y8265278D01*
X11525162Y8270662D01*
X11500610Y8303459D01*
X11496131Y8309017D01*
X11471617Y8337308D01*
X11461150Y8353595D01*
X11457339Y8360017D01*
X11448046Y8377037D01*
X11434974Y8412085D01*
X11432242Y8418681D01*
X11416698Y8452717D01*
X11411237Y8471315D01*
X11409397Y8478524D01*
X11405274Y8497480D01*
X11402606Y8534787D01*
X11401843Y8541886D01*
X11396008Y8582466D01*
X11395500Y8589570D01*
X11395500Y9791930D01*
X11396008Y9799035D01*
X11401844Y9839624D01*
X11402607Y9846721D01*
X11405275Y9884023D01*
X11409404Y9903004D01*
X11411232Y9910164D01*
X11416699Y9928782D01*
X11432244Y9962822D01*
X11434975Y9969416D01*
X11448047Y10004463D01*
X11457346Y10021493D01*
X11461150Y10027904D01*
X11471617Y10044192D01*
X11496127Y10072477D01*
X11500607Y10078037D01*
X11525157Y10110832D01*
X11529827Y10116222D01*
X11800711Y10387106D01*
X11830000Y10457817D01*
X11830000Y11619500D01*
X11810500Y11678827D01*
X11730000Y11719500D01*
X11546013Y11719500D01*
X11541248Y11721066D01*
X11530000Y11743328D01*
X11530000Y12755183D01*
X11500711Y12825894D01*
X11450327Y12876278D01*
X11445662Y12881662D01*
X11421110Y12914459D01*
X11416631Y12920017D01*
X11392117Y12948308D01*
X11381650Y12964595D01*
X11377839Y12971017D01*
X11368546Y12988037D01*
X11355474Y13023085D01*
X11352742Y13029681D01*
X11337198Y13063717D01*
X11331737Y13082315D01*
X11329897Y13089524D01*
X11325774Y13108480D01*
X11323106Y13145787D01*
X11322343Y13152886D01*
X11316508Y13193466D01*
X11316000Y13200570D01*
X11316000Y14797683D01*
X11286711Y14868394D01*
X11092394Y15062711D01*
X11021683Y15092000D01*
X9613513Y15092000D01*
X9608748Y15093566D01*
X9597500Y15115828D01*
X9597500Y16075987D01*
X9608277Y16108775D01*
X9608277Y16171225D01*
X9571227Y16221497D01*
X9513277Y16240000D01*
X300000Y16240000D01*
X240673Y16220500D01*
X200000Y16140000D01*
X200000Y300000D01*
X219500Y240673D01*
X300000Y200000D01*
X2647263Y200000D01*
X2647263Y666500D01*
X2642498Y668066D01*
X2631250Y690328D01*
X2631250Y2250487D01*
X2632816Y2255252D01*
X2647263Y2262551D01*
X2647263Y14159750D01*
X2642498Y14161316D01*
X2631250Y14183578D01*
X2631250Y15743737D01*
X2632816Y15748502D01*
X2655078Y15759750D01*
X4215237Y15759750D01*
X4220002Y15758184D01*
X4231250Y15735922D01*
X4231250Y15659750D01*
X4250750Y15600423D01*
X4331250Y15559750D01*
X5340237Y15559750D01*
X5345002Y15558184D01*
X5356250Y15535922D01*
X5356250Y14375763D01*
X5354684Y14370998D01*
X5332422Y14359750D01*
X4331250Y14359750D01*
X4271923Y14340250D01*
X4231250Y14259750D01*
X4231250Y14175763D01*
X4229684Y14170998D01*
X4207422Y14159750D01*
X2647263Y14159750D01*
X2647263Y2262551D01*
X2655078Y2266500D01*
X4215237Y2266500D01*
X4220002Y2264934D01*
X4231250Y2242672D01*
X4231250Y2166500D01*
X4250750Y2107173D01*
X4331250Y2066500D01*
X5127703Y2066500D01*
X5127703Y5374739D01*
X5115774Y5376188D01*
X4975384Y5410790D01*
X4964148Y5415051D01*
X4836113Y5482249D01*
X4826230Y5489071D01*
X4717992Y5584962D01*
X4710033Y5593946D01*
X4627888Y5712953D01*
X4622310Y5723580D01*
X4571031Y5858790D01*
X4568158Y5870449D01*
X4550729Y6013996D01*
X4550729Y6026004D01*
X4568158Y6169550D01*
X4571031Y6181209D01*
X4622310Y6316419D01*
X4627888Y6327046D01*
X4710033Y6446053D01*
X4717992Y6455037D01*
X4826230Y6550928D01*
X4836113Y6557750D01*
X4964148Y6624948D01*
X4975384Y6629209D01*
X5115774Y6663811D01*
X5127703Y6665260D01*
X5127703Y6665260D01*
X5127703Y9774739D01*
X5115774Y9776188D01*
X4975384Y9810790D01*
X4964148Y9815051D01*
X4836113Y9882249D01*
X4826230Y9889071D01*
X4717992Y9984962D01*
X4710033Y9993946D01*
X4627888Y10112953D01*
X4622310Y10123580D01*
X4571031Y10258790D01*
X4568158Y10270449D01*
X4550729Y10413996D01*
X4550729Y10426004D01*
X4568158Y10569550D01*
X4571031Y10581209D01*
X4622310Y10716419D01*
X4627888Y10727046D01*
X4710033Y10846053D01*
X4717992Y10855037D01*
X4826230Y10950928D01*
X4836113Y10957750D01*
X4964148Y11024948D01*
X4975384Y11029209D01*
X5115774Y11063811D01*
X5127703Y11065260D01*
X5272296Y11065260D01*
X5284225Y11063811D01*
X5424615Y11029209D01*
X5435851Y11024948D01*
X5563886Y10957750D01*
X5573769Y10950928D01*
X5682007Y10855037D01*
X5689966Y10846053D01*
X5772111Y10727046D01*
X5772263Y10726756D01*
X5772263Y14359750D01*
X5767498Y14361316D01*
X5756250Y14383578D01*
X5756250Y15543737D01*
X5757816Y15548502D01*
X5780078Y15559750D01*
X6890237Y15559750D01*
X6895002Y15558184D01*
X6906250Y15535922D01*
X6906250Y15535501D01*
X6925750Y15476174D01*
X6976645Y15439984D01*
X7044519Y15443113D01*
X7154095Y15488501D01*
X7166648Y15491865D01*
X7295998Y15508894D01*
X7309002Y15508894D01*
X7438351Y15491865D01*
X7450904Y15488501D01*
X7571448Y15438570D01*
X7582699Y15432074D01*
X7686203Y15352652D01*
X7695402Y15343453D01*
X7774824Y15239949D01*
X7781320Y15228698D01*
X7831251Y15108154D01*
X7834615Y15095601D01*
X7851644Y14966252D01*
X7851644Y14953248D01*
X7834615Y14823898D01*
X7831251Y14811345D01*
X7781320Y14690802D01*
X7774824Y14679551D01*
X7695402Y14576046D01*
X7686203Y14566847D01*
X7582699Y14487425D01*
X7571448Y14480929D01*
X7450900Y14430996D01*
X7438358Y14427635D01*
X7308995Y14410605D01*
X7296005Y14410605D01*
X7166641Y14427635D01*
X7154099Y14430996D01*
X7044519Y14476386D01*
X6982245Y14481074D01*
X6929333Y14447903D01*
X6906250Y14383998D01*
X6906250Y14375763D01*
X6904684Y14370998D01*
X6882422Y14359750D01*
X5772263Y14359750D01*
X5772263Y10726756D01*
X5777689Y10716419D01*
X5828970Y10581203D01*
X5831840Y10569557D01*
X5849271Y10426004D01*
X5849271Y10413996D01*
X5831840Y10270442D01*
X5828970Y10258796D01*
X5777689Y10123580D01*
X5772111Y10112953D01*
X5689966Y9993946D01*
X5682007Y9984962D01*
X5573769Y9889071D01*
X5563886Y9882249D01*
X5435851Y9815051D01*
X5424615Y9810790D01*
X5284225Y9776188D01*
X5272296Y9774739D01*
X5127703Y9774739D01*
X5127703Y6665260D01*
X5272296Y6665260D01*
X5284225Y6663811D01*
X5424615Y6629209D01*
X5435851Y6624948D01*
X5563886Y6557750D01*
X5573769Y6550928D01*
X5682007Y6455037D01*
X5689966Y6446053D01*
X5772111Y6327046D01*
X5777689Y6316419D01*
X5828970Y6181203D01*
X5831840Y6169557D01*
X5849271Y6026004D01*
X5849271Y6013996D01*
X5831840Y5870442D01*
X5828970Y5858796D01*
X5777689Y5723580D01*
X5772111Y5712953D01*
X5689966Y5593946D01*
X5682007Y5584962D01*
X5573769Y5489071D01*
X5563886Y5482249D01*
X5435851Y5415051D01*
X5424615Y5410790D01*
X5284225Y5376188D01*
X5272296Y5374739D01*
X5127703Y5374739D01*
X5127703Y2066500D01*
X5340237Y2066500D01*
X5345002Y2064934D01*
X5356250Y2042672D01*
X5356250Y882513D01*
X5354684Y877748D01*
X5332422Y866500D01*
X4331250Y866500D01*
X4271923Y847000D01*
X4231250Y766500D01*
X4231250Y682513D01*
X4229684Y677748D01*
X4207422Y666500D01*
X2647263Y666500D01*
X2647263Y200000D01*
X5772263Y200000D01*
X5772263Y866500D01*
X5767498Y868066D01*
X5756250Y890328D01*
X5756250Y2050487D01*
X5757816Y2055252D01*
X5780078Y2066500D01*
X6890237Y2066500D01*
X6895002Y2064934D01*
X6906250Y2042672D01*
X6906250Y2042251D01*
X6925750Y1982924D01*
X6976645Y1946734D01*
X7044519Y1949863D01*
X7154095Y1995251D01*
X7166648Y1998615D01*
X7295998Y2015644D01*
X7309002Y2015644D01*
X7438351Y1998615D01*
X7450904Y1995251D01*
X7571448Y1945320D01*
X7582699Y1938824D01*
X7686203Y1859402D01*
X7695402Y1850203D01*
X7774824Y1746699D01*
X7781320Y1735448D01*
X7831251Y1614904D01*
X7834615Y1602351D01*
X7851644Y1473002D01*
X7851644Y1459998D01*
X7834615Y1330648D01*
X7831251Y1318095D01*
X7781320Y1197552D01*
X7774824Y1186301D01*
X7695402Y1082796D01*
X7686203Y1073597D01*
X7582699Y994175D01*
X7571448Y987679D01*
X7450900Y937746D01*
X7438358Y934385D01*
X7308995Y917355D01*
X7296005Y917355D01*
X7166641Y934385D01*
X7154099Y937746D01*
X7044519Y983136D01*
X6982245Y987824D01*
X6929333Y954653D01*
X6906250Y890748D01*
X6906250Y882513D01*
X6904684Y877748D01*
X6882422Y866500D01*
X5772263Y866500D01*
X5772263Y200000D01*
X9613513Y200000D01*
X9613513Y6842000D01*
X9608748Y6843566D01*
X9597500Y6865828D01*
X9597500Y6868310D01*
X9578000Y6927637D01*
X9500818Y6966633D01*
X9500889Y6967079D01*
X9499501Y6967299D01*
X9497500Y6968310D01*
X9493116Y6968310D01*
X9477760Y6970742D01*
X9466538Y6974388D01*
X9451283Y6978051D01*
X9439614Y6979899D01*
X9424836Y6984701D01*
X9414307Y6990066D01*
X9399810Y6996071D01*
X9388585Y6999718D01*
X9374737Y7006774D01*
X9365188Y7013712D01*
X9351808Y7021911D01*
X9341281Y7027275D01*
X9328714Y7036405D01*
X9320356Y7044763D01*
X9308424Y7054953D01*
X9295692Y7064204D01*
X9289736Y7069290D01*
X9270711Y7088315D01*
X9214971Y7116477D01*
X9153393Y7106079D01*
X9109992Y7061175D01*
X9100000Y7017604D01*
X9100000Y6986013D01*
X9098434Y6981248D01*
X9076172Y6970000D01*
X6416013Y6970000D01*
X6411248Y6971566D01*
X6400000Y6993828D01*
X6400000Y10253987D01*
X6401566Y10258752D01*
X6423828Y10270000D01*
X8602181Y10270000D01*
X8672892Y10299289D01*
X9521278Y11147675D01*
X9526664Y11152342D01*
X9559479Y11176906D01*
X9565040Y11181387D01*
X9593306Y11205881D01*
X9609611Y11216360D01*
X9613513Y11218674D01*
X9613513Y13192000D01*
X9608748Y13193566D01*
X9597500Y13215828D01*
X9597500Y14175987D01*
X9599066Y14180752D01*
X9621328Y14192000D01*
X11081487Y14192000D01*
X11086252Y14190434D01*
X11097500Y14168172D01*
X11097500Y13208013D01*
X11095934Y13203248D01*
X11073672Y13192000D01*
X9613513Y13192000D01*
X9613513Y11218674D01*
X9616015Y11220159D01*
X9633039Y11229455D01*
X9668093Y11242529D01*
X9674689Y11245261D01*
X9708711Y11260798D01*
X9727343Y11266269D01*
X9734552Y11268109D01*
X9753477Y11272226D01*
X9787135Y11274634D01*
X9844920Y11298317D01*
X9880000Y11374379D01*
X9880000Y11640987D01*
X9881566Y11645752D01*
X9903828Y11657000D01*
X11013987Y11657000D01*
X11018752Y11655434D01*
X11030000Y11633172D01*
X11030000Y10023013D01*
X11028434Y10018248D01*
X11006172Y10007000D01*
X9896013Y10007000D01*
X9891247Y10008566D01*
X9874228Y10042251D01*
X9830069Y10086410D01*
X9768323Y10095759D01*
X9714263Y10067866D01*
X9559108Y9912711D01*
X9530946Y9856971D01*
X9541344Y9795393D01*
X9542596Y9794182D01*
X9527105Y9805198D01*
X9464664Y9804136D01*
X9426789Y9780392D01*
X9378106Y9731709D01*
X9349944Y9675969D01*
X9360342Y9614391D01*
X9405246Y9570990D01*
X9469584Y9566587D01*
X9469990Y9564026D01*
X9493118Y9567689D01*
X9497500Y9567689D01*
X9556827Y9587189D01*
X9597500Y9667689D01*
X9597500Y9709681D01*
X9582357Y9755753D01*
X9586248Y9751992D01*
X9629819Y9742000D01*
X11081487Y9742000D01*
X11086252Y9740434D01*
X11097500Y9718172D01*
X11097500Y8758013D01*
X11095934Y8753248D01*
X11073672Y8742000D01*
X9597500Y8742000D01*
X9597500Y8739442D01*
X9540157Y8735027D01*
X9526187Y8727909D01*
X9512808Y8719710D01*
X9503260Y8712773D01*
X9489410Y8705716D01*
X9478184Y8702068D01*
X9463687Y8696064D01*
X9453166Y8690704D01*
X9438380Y8685899D01*
X9426716Y8684051D01*
X9411461Y8680388D01*
X9400239Y8676742D01*
X9377110Y8673079D01*
X9377405Y8671214D01*
X9327497Y8654810D01*
X9291307Y8603915D01*
X9292369Y8541474D01*
X9319068Y8505499D01*
X9316724Y8503155D01*
X9330640Y8489239D01*
X9342572Y8479048D01*
X9355315Y8469789D01*
X9361263Y8464710D01*
X9625711Y8200262D01*
X9630795Y8194309D01*
X9640048Y8181573D01*
X9650239Y8169640D01*
X9658594Y8161285D01*
X9667724Y8148718D01*
X9673089Y8138189D01*
X9681288Y8124810D01*
X9688225Y8115262D01*
X9695284Y8101408D01*
X9698931Y8090184D01*
X9704935Y8075687D01*
X9710297Y8065164D01*
X9715100Y8050380D01*
X9716947Y8038719D01*
X9720612Y8023453D01*
X9724256Y8012239D01*
X9726689Y7996880D01*
X9726689Y7985089D01*
X9727920Y7969444D01*
X9730385Y7953879D01*
X9731000Y7946069D01*
X9731000Y7942000D01*
X9750500Y7882673D01*
X9831000Y7842000D01*
X11081487Y7842000D01*
X11086252Y7840434D01*
X11097500Y7818172D01*
X11097500Y6858013D01*
X11095934Y6853248D01*
X11073672Y6842000D01*
X9613513Y6842000D01*
X9613513Y200000D01*
X15500161Y200000D01*
X15559488Y219500D01*
G37*
G36*
X18089314Y7509289D02*
X19464461Y8884436D01*
X19493750Y8955147D01*
X19493750Y13180000D01*
X19474250Y13239327D01*
X19393750Y13280000D01*
X18069763Y13280000D01*
X18064998Y13281566D01*
X18053750Y13303828D01*
X18053750Y14763987D01*
X18055316Y14768752D01*
X18077578Y14780000D01*
X18468829Y14780000D01*
X18528156Y14799500D01*
X18564346Y14850395D01*
X18560606Y14895000D01*
X18561250Y14895000D01*
X18561250Y15045000D01*
X18541750Y15104327D01*
X18461250Y15145000D01*
X15405000Y15145000D01*
X15345673Y15125500D01*
X15305000Y15045000D01*
X15305000Y14758013D01*
X15303434Y14753248D01*
X15281172Y14742000D01*
X13921013Y14742000D01*
X13916248Y14743566D01*
X13905000Y14765828D01*
X13905000Y14992000D01*
X13885500Y15051327D01*
X13805000Y15092000D01*
X12413513Y15092000D01*
X12408748Y15093566D01*
X12400685Y15109524D01*
X12388307Y15121902D01*
X12397500Y15161320D01*
X12397500Y16075987D01*
X12408277Y16108775D01*
X12408277Y16171225D01*
X12371227Y16221497D01*
X12313277Y16240000D01*
X11220562Y16240000D01*
X11161235Y16220500D01*
X11125045Y16169605D01*
X11126107Y16107164D01*
X11164006Y16057529D01*
X11206330Y16041018D01*
X11243607Y16035658D01*
X11250705Y16034895D01*
X11288017Y16032227D01*
X11306968Y16028104D01*
X11314172Y16026265D01*
X11332784Y16020801D01*
X11366806Y16005264D01*
X11373398Y16002534D01*
X11408457Y15989457D01*
X11425496Y15980152D01*
X11431866Y15976373D01*
X11448194Y15965880D01*
X11476467Y15941381D01*
X11482024Y15936902D01*
X11514845Y15912332D01*
X11520222Y15907673D01*
X12081669Y15346226D01*
X12086339Y15340836D01*
X12110892Y15308037D01*
X12115371Y15302479D01*
X12139878Y15274196D01*
X12150365Y15257877D01*
X12154147Y15251502D01*
X12163454Y15234460D01*
X12176522Y15199423D01*
X12179253Y15192830D01*
X12194801Y15158783D01*
X12200804Y15138340D01*
X12202594Y15138866D01*
X12225917Y15091839D01*
X12212449Y15050194D01*
X12215492Y15029032D01*
X12216000Y15021930D01*
X12216000Y14248285D01*
X12235500Y14188958D01*
X12286395Y14152768D01*
X12348836Y14153830D01*
X12360346Y14165537D01*
X12362096Y14162073D01*
X12421328Y14192000D01*
X13881487Y14192000D01*
X13886252Y14190434D01*
X13897500Y14168172D01*
X13897500Y13208013D01*
X13895934Y13203248D01*
X13873672Y13192000D01*
X13130000Y13192000D01*
X13070673Y13172500D01*
X13030000Y13092000D01*
X13030000Y11953806D01*
X13049500Y11894479D01*
X13100395Y11858289D01*
X13143054Y11854662D01*
X13169500Y11858144D01*
X13182502Y11858144D01*
X13311851Y11841115D01*
X13324404Y11837751D01*
X13415356Y11800077D01*
X13491894Y11800077D01*
X13582845Y11837751D01*
X13595398Y11841115D01*
X13724748Y11858144D01*
X13737752Y11858144D01*
X13867101Y11841115D01*
X13879654Y11837751D01*
X14000198Y11787820D01*
X14011449Y11781324D01*
X14114953Y11701902D01*
X14124152Y11692703D01*
X14203574Y11589199D01*
X14210070Y11577948D01*
X14260001Y11457404D01*
X14263365Y11444851D01*
X14280394Y11315502D01*
X14280394Y11302498D01*
X14263365Y11173148D01*
X14260001Y11160595D01*
X14210070Y11040052D01*
X14203574Y11028801D01*
X14124152Y10925296D01*
X14114953Y10916097D01*
X14011449Y10836675D01*
X14000198Y10830179D01*
X13879650Y10780246D01*
X13867108Y10776885D01*
X13737745Y10759855D01*
X13724755Y10759855D01*
X13595391Y10776885D01*
X13582850Y10780246D01*
X13491894Y10817922D01*
X13415356Y10817922D01*
X13324400Y10780246D01*
X13311858Y10776885D01*
X13182495Y10759855D01*
X13169505Y10759855D01*
X13093052Y10769920D01*
X13031687Y10758330D01*
X12989164Y10712594D01*
X12980000Y10670775D01*
X12980000Y10023013D01*
X12978434Y10018248D01*
X12956172Y10007000D01*
X12734817Y10007000D01*
X12664106Y9977711D01*
X12599106Y9912711D01*
X12570944Y9856971D01*
X12581342Y9795393D01*
X12626246Y9751992D01*
X12669817Y9742000D01*
X13881487Y9742000D01*
X13886252Y9740434D01*
X13898356Y9716478D01*
X13917000Y9659756D01*
X13967895Y9623566D01*
X14010553Y9619939D01*
X14122248Y9634644D01*
X14135252Y9634644D01*
X14264601Y9617615D01*
X14277154Y9614251D01*
X14397698Y9564320D01*
X14408949Y9557824D01*
X14512453Y9478402D01*
X14521652Y9469203D01*
X14601074Y9365699D01*
X14607570Y9354448D01*
X14657501Y9233904D01*
X14660865Y9221351D01*
X14677894Y9092002D01*
X14677894Y9078998D01*
X14660865Y8949648D01*
X14657501Y8937095D01*
X14607570Y8816552D01*
X14601074Y8805301D01*
X14521652Y8701796D01*
X14512453Y8692597D01*
X14408949Y8613175D01*
X14397698Y8606679D01*
X14277150Y8556746D01*
X14264608Y8553385D01*
X14135245Y8536355D01*
X14122255Y8536355D01*
X14010552Y8551060D01*
X13949187Y8539470D01*
X13906664Y8493733D01*
X13897500Y8451915D01*
X13897500Y7973083D01*
X13917000Y7913756D01*
X13967895Y7877566D01*
X14010553Y7873939D01*
X14122248Y7888644D01*
X14135252Y7888644D01*
X14264601Y7871615D01*
X14277154Y7868251D01*
X14397698Y7818320D01*
X14408949Y7811824D01*
X14512453Y7732402D01*
X14521652Y7723203D01*
X14601072Y7619702D01*
X14608805Y7606308D01*
X14655358Y7564681D01*
X14698750Y7565889D01*
X14698750Y7558000D01*
X16082737Y7558000D01*
X16087501Y7556434D01*
X16098379Y7534904D01*
X16142538Y7490745D01*
X16187634Y7480000D01*
X16229763Y7480000D01*
X16229763Y7820000D01*
X16224998Y7821566D01*
X16213750Y7843828D01*
X16213750Y9180000D01*
X16194250Y9239327D01*
X16113750Y9280000D01*
X15573431Y9280000D01*
X15565618Y9280615D01*
X15550059Y9283079D01*
X15534416Y9284310D01*
X15522616Y9284310D01*
X15507260Y9286742D01*
X15496038Y9290388D01*
X15480783Y9294051D01*
X15469114Y9295899D01*
X15454336Y9300701D01*
X15443807Y9306066D01*
X15429310Y9312071D01*
X15418085Y9315718D01*
X15404237Y9322774D01*
X15394688Y9329712D01*
X15381308Y9337911D01*
X15370781Y9343275D01*
X15358214Y9352405D01*
X15349856Y9360763D01*
X15337924Y9370953D01*
X15325192Y9380204D01*
X15319236Y9385290D01*
X15244210Y9460316D01*
X15173499Y9489605D01*
X15154255Y9489605D01*
X15024891Y9506635D01*
X15012349Y9509996D01*
X14891802Y9559929D01*
X14880551Y9566425D01*
X14777046Y9645847D01*
X14767847Y9655046D01*
X14688425Y9758551D01*
X14681929Y9769802D01*
X14631996Y9890349D01*
X14628635Y9902891D01*
X14611605Y10032255D01*
X14611605Y10045245D01*
X14628635Y10174608D01*
X14631996Y10187150D01*
X14681929Y10307698D01*
X14688425Y10318949D01*
X14767847Y10422453D01*
X14777046Y10431652D01*
X14880551Y10511074D01*
X14891802Y10517570D01*
X15012345Y10567501D01*
X15024898Y10570865D01*
X15154248Y10587894D01*
X15167252Y10587894D01*
X15296601Y10570865D01*
X15309158Y10567500D01*
X15332230Y10557943D01*
X15394504Y10553254D01*
X15447416Y10586424D01*
X15470500Y10650330D01*
X15470500Y11102603D01*
X15441211Y11173314D01*
X14613278Y12001247D01*
X14539299Y12026355D01*
X14539299Y12030106D01*
X14519753Y12030105D01*
X14390391Y12047135D01*
X14377849Y12050496D01*
X14257302Y12100429D01*
X14246051Y12106925D01*
X14142546Y12186347D01*
X14133347Y12195546D01*
X14053925Y12299051D01*
X14047429Y12310302D01*
X13997496Y12430849D01*
X13994135Y12443391D01*
X13977105Y12572755D01*
X13977105Y12585745D01*
X13994135Y12715108D01*
X13997496Y12727650D01*
X14047429Y12848198D01*
X14053925Y12859449D01*
X14133347Y12962953D01*
X14142546Y12972152D01*
X14246051Y13051574D01*
X14257302Y13058070D01*
X14377845Y13108001D01*
X14390398Y13111365D01*
X14519748Y13128394D01*
X14532752Y13128394D01*
X14662101Y13111365D01*
X14674654Y13108001D01*
X14795198Y13058070D01*
X14806449Y13051574D01*
X14909953Y12972152D01*
X14919152Y12962953D01*
X14998574Y12859449D01*
X15005070Y12848198D01*
X15055001Y12727654D01*
X15058365Y12715101D01*
X15075394Y12585750D01*
X15075395Y12570497D01*
X15104684Y12499791D01*
X16043039Y11561436D01*
X16098779Y11533274D01*
X16160357Y11543672D01*
X16203758Y11588576D01*
X16213750Y11632147D01*
X16213750Y12923987D01*
X16215316Y12928752D01*
X16237578Y12940000D01*
X17697737Y12940000D01*
X17702502Y12938434D01*
X17713750Y12916172D01*
X17713750Y7836013D01*
X17712184Y7831248D01*
X17689922Y7820000D01*
X16229763Y7820000D01*
X16229763Y7480000D01*
X18018603Y7480000D01*
X18089314Y7509289D01*
G37*
G36*
X33826327Y219500D02*
X33867000Y300000D01*
X33867000Y16140000D01*
X33847500Y16199327D01*
X33767000Y16240000D01*
X20161250Y16240000D01*
X20101923Y16220500D01*
X20061250Y16140000D01*
X20061250Y15381397D01*
X20090539Y15310686D01*
X20108462Y15292763D01*
X20113546Y15286810D01*
X20122804Y15274067D01*
X20132995Y15262134D01*
X20141344Y15253785D01*
X20150474Y15241218D01*
X20155837Y15230693D01*
X20164036Y15217314D01*
X20170976Y15207762D01*
X20178034Y15193910D01*
X20181682Y15182683D01*
X20187686Y15168186D01*
X20193046Y15157667D01*
X20197851Y15142879D01*
X20199697Y15131221D01*
X20203361Y15115959D01*
X20207007Y15104739D01*
X20209440Y15089379D01*
X20209440Y15077584D01*
X20210671Y15061941D01*
X20213135Y15046383D01*
X20213750Y15038569D01*
X20213750Y14033931D01*
X20213135Y14026119D01*
X20210671Y14010561D01*
X20209440Y13994917D01*
X20209440Y13983118D01*
X20207008Y13967766D01*
X20203361Y13956540D01*
X20199698Y13941282D01*
X20196619Y13921843D01*
X20197017Y13921780D01*
X20193750Y13901158D01*
X20193750Y13398000D01*
X20213250Y13338673D01*
X20293750Y13298000D01*
X20453750Y13298000D01*
X20513077Y13317500D01*
X20553750Y13398000D01*
X20553750Y14763987D01*
X20555316Y14768752D01*
X20577578Y14780000D01*
X24157737Y14780000D01*
X24162502Y14778434D01*
X24173750Y14756172D01*
X24173750Y14207046D01*
X24184650Y14161646D01*
X24193045Y14145170D01*
X24197850Y14130381D01*
X24213135Y14033881D01*
X24213750Y14026069D01*
X24213750Y13398000D01*
X24233250Y13338673D01*
X24313750Y13298000D01*
X24799000Y13298000D01*
X24858327Y13317500D01*
X24899000Y13398000D01*
X24899000Y14511987D01*
X24900566Y14516752D01*
X24922828Y14528000D01*
X26282987Y14528000D01*
X26287752Y14526434D01*
X26299000Y14504172D01*
X26299000Y13329619D01*
X26340223Y13248716D01*
X26340819Y13248283D01*
X26354196Y13240086D01*
X26367767Y13233171D01*
X26458264Y13233017D01*
X26472579Y13240250D01*
X26533890Y13240250D01*
X26593217Y13259750D01*
X26629407Y13310645D01*
X26626278Y13378519D01*
X26618996Y13396099D01*
X26615635Y13408641D01*
X26598605Y13538005D01*
X26598605Y13550995D01*
X26615635Y13680358D01*
X26618996Y13692900D01*
X26668929Y13813448D01*
X26675425Y13824699D01*
X26754847Y13928203D01*
X26764046Y13937402D01*
X26867551Y14016824D01*
X26878802Y14023320D01*
X26999345Y14073251D01*
X27011898Y14076615D01*
X27141248Y14093644D01*
X27154252Y14093644D01*
X27283601Y14076615D01*
X27296154Y14073251D01*
X27416694Y14023321D01*
X27427950Y14016823D01*
X27430112Y14015164D01*
X27431839Y14014578D01*
X27433626Y14013546D01*
X27433831Y14013902D01*
X27490988Y13994500D01*
X27598262Y13994500D01*
X27655419Y14013902D01*
X27655624Y14013546D01*
X27657411Y14014578D01*
X27659138Y14015164D01*
X27661300Y14016823D01*
X27672556Y14023321D01*
X27793095Y14073251D01*
X27805648Y14076615D01*
X27934998Y14093644D01*
X27948002Y14093644D01*
X28077351Y14076615D01*
X28089904Y14073251D01*
X28210448Y14023320D01*
X28221699Y14016824D01*
X28325203Y13937402D01*
X28334402Y13928203D01*
X28413824Y13824699D01*
X28420320Y13813448D01*
X28470251Y13692904D01*
X28473615Y13680351D01*
X28490644Y13551002D01*
X28490644Y13537998D01*
X28473615Y13408648D01*
X28470251Y13396095D01*
X28462971Y13378519D01*
X28458283Y13316245D01*
X28491454Y13263333D01*
X28555359Y13240250D01*
X28632739Y13240250D01*
X28638778Y13238265D01*
X28715097Y13244010D01*
X28738828Y13256000D01*
X30098987Y13256000D01*
X30103752Y13254434D01*
X30115000Y13232172D01*
X30115000Y11993000D01*
X30134500Y11933673D01*
X30215000Y11893000D01*
X31039430Y11893000D01*
X31046534Y11892492D01*
X31105468Y11884018D01*
X31119700Y11883000D01*
X31994487Y11883000D01*
X31999252Y11881434D01*
X32010500Y11859172D01*
X32010500Y11019013D01*
X32008934Y11014248D01*
X31986672Y11003000D01*
X31119703Y11003000D01*
X31105472Y11001982D01*
X31046535Y10993508D01*
X31039430Y10993000D01*
X30020127Y10993000D01*
X29960800Y10973500D01*
X29924610Y10922605D01*
X29930873Y10847904D01*
X29956000Y10798173D01*
X29956000Y10703148D01*
X29975500Y10643821D01*
X30026395Y10607631D01*
X30090441Y10613000D01*
X31994487Y10613000D01*
X31999252Y10611434D01*
X32010500Y10589172D01*
X32010500Y9749013D01*
X32008934Y9744248D01*
X31986672Y9733000D01*
X30091510Y9733000D01*
X30087223Y9734409D01*
X30024774Y9734409D01*
X29974502Y9697358D01*
X29956000Y9639409D01*
X29956000Y9433148D01*
X29975500Y9373821D01*
X30026395Y9337631D01*
X30090441Y9343000D01*
X32004657Y9343000D01*
X32065533Y9363665D01*
X32110045Y9397820D01*
X32121306Y9404321D01*
X32241845Y9454251D01*
X32254398Y9457615D01*
X32383748Y9474644D01*
X32396752Y9474644D01*
X32526101Y9457615D01*
X32538654Y9454251D01*
X32659198Y9404320D01*
X32670449Y9397824D01*
X32773953Y9318402D01*
X32783152Y9309203D01*
X32862574Y9205699D01*
X32869070Y9194448D01*
X32919001Y9073904D01*
X32922365Y9061351D01*
X32939394Y8932002D01*
X32939394Y8918998D01*
X32922365Y8789648D01*
X32919001Y8777095D01*
X32869070Y8656552D01*
X32862574Y8645301D01*
X32783152Y8541796D01*
X32773953Y8532597D01*
X32670449Y8453175D01*
X32659198Y8446679D01*
X32538650Y8396746D01*
X32526108Y8393385D01*
X32396745Y8376355D01*
X32383755Y8376355D01*
X32254391Y8393385D01*
X32241849Y8396746D01*
X32121306Y8446678D01*
X32110046Y8453178D01*
X32103212Y8458422D01*
X32044273Y8479067D01*
X31997240Y8468340D01*
X31986671Y8463000D01*
X30091513Y8463000D01*
X30086748Y8464566D01*
X30075500Y8486828D01*
X30075500Y9231852D01*
X30056000Y9291179D01*
X30005105Y9327369D01*
X29941059Y9322000D01*
X28572013Y9322000D01*
X28567249Y9323566D01*
X28551314Y9355105D01*
X28507155Y9399264D01*
X28445409Y9408613D01*
X28390156Y9379507D01*
X28367059Y9341235D01*
X28364434Y9333248D01*
X28342172Y9322000D01*
X26982013Y9322000D01*
X26977248Y9323566D01*
X26966000Y9345828D01*
X26966000Y9862603D01*
X26936711Y9933314D01*
X26914711Y9955314D01*
X26858971Y9983476D01*
X26797393Y9973078D01*
X26753992Y9928174D01*
X26744000Y9884603D01*
X26744000Y6538000D01*
X26763500Y6478673D01*
X26844000Y6438000D01*
X26977987Y6438000D01*
X26982752Y6436434D01*
X26994000Y6414172D01*
X26994000Y6313000D01*
X27013500Y6253673D01*
X27094000Y6213000D01*
X27125000Y6213000D01*
X27184327Y6232500D01*
X27225000Y6313000D01*
X27225000Y6421987D01*
X27226566Y6426752D01*
X27248828Y6438000D01*
X28408987Y6438000D01*
X28413752Y6436434D01*
X28425000Y6414172D01*
X28425000Y5304013D01*
X28423434Y5299248D01*
X28401172Y5288000D01*
X27241013Y5288000D01*
X27236248Y5289566D01*
X27225000Y5311828D01*
X27225000Y5413000D01*
X27205500Y5472327D01*
X27125000Y5513000D01*
X27094000Y5513000D01*
X27034673Y5493500D01*
X26994000Y5413000D01*
X26994000Y5304013D01*
X26992434Y5299248D01*
X26970172Y5288000D01*
X25810013Y5288000D01*
X25805248Y5289566D01*
X25794000Y5311828D01*
X25794000Y6081222D01*
X25774500Y6140549D01*
X25723605Y6176739D01*
X25661164Y6175677D01*
X25630858Y6156678D01*
X25630158Y6157591D01*
X25521449Y6074175D01*
X25510198Y6067679D01*
X25389650Y6017746D01*
X25377108Y6014385D01*
X25247745Y5997355D01*
X25234755Y5997355D01*
X25105391Y6014385D01*
X25092849Y6017746D01*
X24972302Y6067679D01*
X24961051Y6074175D01*
X24857546Y6153597D01*
X24848347Y6162796D01*
X24768925Y6266301D01*
X24762429Y6277552D01*
X24712496Y6398099D01*
X24709135Y6410641D01*
X24692105Y6540005D01*
X24692105Y6552995D01*
X24709135Y6682356D01*
X24712287Y6694120D01*
X24708805Y6756473D01*
X24669010Y6804601D01*
X24615694Y6820000D01*
X24529763Y6820000D01*
X24524998Y6821566D01*
X24513750Y6843828D01*
X24513750Y10518663D01*
X24494250Y10577990D01*
X24443355Y10614180D01*
X24380914Y10613118D01*
X24321362Y10556932D01*
X24291070Y10483802D01*
X24284574Y10472551D01*
X24205152Y10369046D01*
X24195953Y10359847D01*
X24092449Y10280425D01*
X24081198Y10273929D01*
X23960650Y10223996D01*
X23948108Y10220635D01*
X23818745Y10203605D01*
X23805755Y10203605D01*
X23676391Y10220635D01*
X23663849Y10223996D01*
X23543302Y10273929D01*
X23532051Y10280425D01*
X23428546Y10359847D01*
X23419347Y10369046D01*
X23339925Y10472551D01*
X23333429Y10483802D01*
X23283496Y10604349D01*
X23280135Y10616891D01*
X23263105Y10746255D01*
X23263105Y10759245D01*
X23280135Y10888608D01*
X23283496Y10901150D01*
X23333429Y11021698D01*
X23339923Y11032945D01*
X23387907Y11095478D01*
X23408553Y11154417D01*
X23369448Y11235690D01*
X23269546Y11312347D01*
X23260347Y11321546D01*
X23180925Y11425051D01*
X23174429Y11436302D01*
X23124496Y11556849D01*
X23121135Y11569391D01*
X23104105Y11698755D01*
X23104105Y11711745D01*
X23121135Y11841108D01*
X23124496Y11853650D01*
X23174429Y11974198D01*
X23180925Y11985449D01*
X23260347Y12088953D01*
X23269546Y12098152D01*
X23373051Y12177574D01*
X23384302Y12184070D01*
X23504845Y12234001D01*
X23517398Y12237365D01*
X23646748Y12254394D01*
X23659752Y12254394D01*
X23789101Y12237365D01*
X23801654Y12234001D01*
X23922198Y12184070D01*
X23933449Y12177574D01*
X24036953Y12098152D01*
X24046152Y12088953D01*
X24099734Y12019124D01*
X24179069Y11980000D01*
X25259819Y11980000D01*
X25267631Y11979385D01*
X25364131Y11964100D01*
X25378920Y11959295D01*
X25395396Y11950900D01*
X25440796Y11940000D01*
X25785000Y11940000D01*
X25844327Y11959500D01*
X25885000Y12040000D01*
X25885000Y12220000D01*
X25865500Y12279327D01*
X25785000Y12320000D01*
X25458048Y12320000D01*
X25412648Y12309100D01*
X25396169Y12300703D01*
X25381382Y12295899D01*
X25284882Y12280615D01*
X25277069Y12280000D01*
X25267681Y12280000D01*
X25259868Y12280615D01*
X25163367Y12295899D01*
X25148580Y12300703D01*
X25132101Y12309100D01*
X25086701Y12320000D01*
X24529763Y12320000D01*
X24524998Y12321566D01*
X24513750Y12343828D01*
X24513750Y12498000D01*
X24494250Y12557327D01*
X24413750Y12598000D01*
X20293750Y12598000D01*
X20234423Y12578500D01*
X20193750Y12498000D01*
X20193750Y10012500D01*
X20213250Y9953173D01*
X20293750Y9912500D01*
X22856070Y9912500D01*
X22863879Y9911886D01*
X22879432Y9909422D01*
X22895077Y9908191D01*
X22906883Y9908191D01*
X22922238Y9905759D01*
X22933472Y9902109D01*
X22948728Y9898446D01*
X22960383Y9896600D01*
X22975170Y9891795D01*
X22985676Y9886442D01*
X23000171Y9880438D01*
X23011412Y9876785D01*
X23025263Y9869729D01*
X23034831Y9862777D01*
X23048210Y9854579D01*
X23058716Y9849226D01*
X23071285Y9840094D01*
X23079630Y9831749D01*
X23091561Y9821559D01*
X23104309Y9812297D01*
X23110266Y9807209D01*
X24108462Y8809013D01*
X24113546Y8803060D01*
X24122804Y8790317D01*
X24132995Y8778384D01*
X24141344Y8770035D01*
X24150474Y8757468D01*
X24155837Y8746943D01*
X24164036Y8733564D01*
X24170976Y8724012D01*
X24178034Y8710160D01*
X24181682Y8698933D01*
X24187686Y8684436D01*
X24193046Y8673917D01*
X24197851Y8659129D01*
X24199697Y8647471D01*
X24203361Y8632209D01*
X24207007Y8620989D01*
X24209440Y8605629D01*
X24209440Y8593834D01*
X24210671Y8578191D01*
X24213135Y8562633D01*
X24213750Y8554819D01*
X24213750Y4991397D01*
X24243039Y4920686D01*
X24269436Y4894289D01*
X24340147Y4865000D01*
X25237737Y4865000D01*
X25242502Y4863434D01*
X25253750Y4841172D01*
X25253750Y4763000D01*
X25273250Y4703673D01*
X25353750Y4663000D01*
X25694000Y4663000D01*
X25753327Y4682500D01*
X25794000Y4763000D01*
X25794000Y4871987D01*
X25795566Y4876752D01*
X25817828Y4888000D01*
X26977987Y4888000D01*
X26982752Y4886434D01*
X26994000Y4864172D01*
X26994000Y3754013D01*
X26992434Y3749248D01*
X26970172Y3738000D01*
X25810013Y3738000D01*
X25805248Y3739566D01*
X25794000Y3761828D01*
X25794000Y3863000D01*
X25774500Y3922327D01*
X25694000Y3963000D01*
X25353750Y3963000D01*
X25294423Y3943500D01*
X25253750Y3863000D01*
X25253750Y3481013D01*
X25252184Y3476248D01*
X25229922Y3465000D01*
X24953750Y3465000D01*
X24894423Y3445500D01*
X24853750Y3365000D01*
X24853750Y2638181D01*
X24853135Y2630368D01*
X24850671Y2614809D01*
X24849440Y2599166D01*
X24849440Y2587370D01*
X24847007Y2572010D01*
X24843361Y2560790D01*
X24839697Y2545528D01*
X24837851Y2533870D01*
X24833046Y2519082D01*
X24827686Y2508563D01*
X24821682Y2494066D01*
X24818034Y2482839D01*
X24810975Y2468985D01*
X24804035Y2459433D01*
X24795836Y2446054D01*
X24790475Y2435533D01*
X24781343Y2422963D01*
X24772995Y2414615D01*
X24762804Y2402682D01*
X24753544Y2389937D01*
X24748465Y2383990D01*
X24517789Y2153314D01*
X24488500Y2082603D01*
X24488500Y346513D01*
X24483475Y331225D01*
X24483475Y268775D01*
X24520525Y218503D01*
X24578475Y200000D01*
X30091513Y200000D01*
X30091513Y4653000D01*
X30086748Y4654566D01*
X30075500Y4676828D01*
X30075500Y5516987D01*
X30077066Y5521752D01*
X30099328Y5533000D01*
X31994487Y5533000D01*
X31999252Y5531434D01*
X32010500Y5509172D01*
X32010500Y4669013D01*
X32008934Y4664248D01*
X31986672Y4653000D01*
X30091513Y4653000D01*
X30091513Y200000D01*
X32539005Y200000D01*
X32539005Y5834355D01*
X32409641Y5851385D01*
X32397099Y5854746D01*
X32276552Y5904679D01*
X32265306Y5911172D01*
X32166365Y5987092D01*
X32107426Y6007737D01*
X32047732Y5989390D01*
X32010489Y5938980D01*
X32008934Y5934248D01*
X31986672Y5923000D01*
X30091513Y5923000D01*
X30086748Y5924566D01*
X30075500Y5946828D01*
X30075500Y6786987D01*
X30077066Y6791752D01*
X30091513Y6799051D01*
X30091513Y7193000D01*
X30086748Y7194566D01*
X30075500Y7216828D01*
X30075500Y8056987D01*
X30077066Y8061752D01*
X30099328Y8073000D01*
X31994487Y8073000D01*
X31999252Y8071434D01*
X32010500Y8049172D01*
X32010500Y7209013D01*
X32008934Y7204248D01*
X31986672Y7193000D01*
X30091513Y7193000D01*
X30091513Y6799051D01*
X30099328Y6803000D01*
X31994487Y6803000D01*
X31999251Y6801434D01*
X31999921Y6800108D01*
X32044080Y6755949D01*
X32105826Y6746600D01*
X32156380Y6772683D01*
X32156591Y6772408D01*
X32158120Y6773581D01*
X32159887Y6774493D01*
X32161796Y6776402D01*
X32265301Y6855824D01*
X32276552Y6862320D01*
X32397095Y6912251D01*
X32409648Y6915615D01*
X32538998Y6932644D01*
X32552002Y6932644D01*
X32681351Y6915615D01*
X32693904Y6912251D01*
X32814448Y6862320D01*
X32825699Y6855824D01*
X32929203Y6776402D01*
X32938402Y6767203D01*
X33017824Y6663699D01*
X33024320Y6652448D01*
X33074251Y6531904D01*
X33077615Y6519351D01*
X33094644Y6390002D01*
X33094644Y6376998D01*
X33077615Y6247648D01*
X33074251Y6235095D01*
X33024320Y6114552D01*
X33017824Y6103301D01*
X32938402Y5999796D01*
X32929203Y5990597D01*
X32825699Y5911175D01*
X32814448Y5904679D01*
X32693900Y5854746D01*
X32681358Y5851385D01*
X32551995Y5834355D01*
X32539005Y5834355D01*
X32539005Y200000D01*
X33767000Y200000D01*
X33826327Y219500D01*
G37*
G36*
X22557915Y7441864D02*
X22603695Y7492069D01*
X22619177Y7529444D01*
X22625675Y7540699D01*
X22705097Y7644203D01*
X22714296Y7653402D01*
X22817801Y7732824D01*
X22829052Y7739320D01*
X22949595Y7789251D01*
X22962148Y7792615D01*
X23091498Y7809644D01*
X23104502Y7809644D01*
X23233851Y7792615D01*
X23246404Y7789251D01*
X23373000Y7736813D01*
X23373922Y7739038D01*
X23424891Y7728392D01*
X23481677Y7754380D01*
X23513750Y7827769D01*
X23513750Y8372353D01*
X23484461Y8443064D01*
X22744314Y9183211D01*
X22673603Y9212500D01*
X21345856Y9212500D01*
X21286529Y9193000D01*
X21250339Y9142105D01*
X21251401Y9079664D01*
X21266521Y9051623D01*
X21268576Y9048945D01*
X21275070Y9037698D01*
X21325001Y8917154D01*
X21328365Y8904601D01*
X21345394Y8775252D01*
X21345394Y8762248D01*
X21328365Y8632898D01*
X21325001Y8620345D01*
X21275070Y8499802D01*
X21268574Y8488551D01*
X21189152Y8385046D01*
X21175539Y8371433D01*
X21146250Y8300722D01*
X21146250Y7859872D01*
X21165750Y7800545D01*
X21216645Y7764355D01*
X21279086Y7765417D01*
X21338638Y7821604D01*
X21348928Y7846446D01*
X21355425Y7857699D01*
X21434847Y7961203D01*
X21444046Y7970402D01*
X21547551Y8049824D01*
X21558802Y8056320D01*
X21679345Y8106251D01*
X21691898Y8109615D01*
X21821248Y8126644D01*
X21834252Y8126644D01*
X21963601Y8109615D01*
X21976154Y8106251D01*
X22096698Y8056320D01*
X22107949Y8049824D01*
X22211453Y7970402D01*
X22220652Y7961203D01*
X22300074Y7857699D01*
X22306570Y7846448D01*
X22356501Y7725904D01*
X22359865Y7713351D01*
X22376894Y7584000D01*
X22376895Y7564748D01*
X22406184Y7494041D01*
X22440597Y7459628D01*
X22496337Y7431466D01*
X22557915Y7441864D01*
G37*
G04 --- BOARD END --- *
%TF.MD5,a67c16d97401620483031a57f5a21b2d*%
M02*
