G04 --- HEADER BEGIN --- *
%TF.GenerationSoftware,LibrePCB,LibrePCB,0.1.5*%
%TF.CreationDate,2021-01-02T14:24:37*%
%TF.ProjectId,can2usb - default,565da67e-d1db-4e60-9fc1-0ba8a5c8bd0e,v1*%
%TF.Part,Single*%
%FSLAX66Y66*%
%MOMM*%
G01*
G74*
G04 --- HEADER END --- *
G04 --- APERTURE LIST BEGIN --- *
%ADD10R,1.2X1.3*%
%ADD11R,1.3X1.2*%
%ADD12O,1.787X2.39*%
%ADD13R,1.787X2.39*%
%ADD14R,1.3X0.42*%
%ADD15R,0.42X1.3*%
%ADD16R,0.95X1.45*%
%ADD17R,1.0X0.95*%
%ADD18O,4.2X2.74*%
%ADD19R,1.4X1.4*%
%ADD20R,0.95X1.0*%
%ADD21R,1.6X1.2*%
%ADD22R,2.0X1.8*%
%ADD23R,1.735X0.68*%
%ADD24R,1.3X0.8*%
%ADD25R,2.7X2.2*%
%ADD26R,2.5X0.7*%
G04 --- APERTURE LIST END --- *
G04 --- BOARD BEGIN --- *
D10*
X14605000Y13792000D03*
X14605000Y15492000D03*
D11*
X10580000Y12419500D03*
X12280000Y12419500D03*
D10*
X29415000Y14206000D03*
X29415000Y12506000D03*
D12*
X20955000Y1625500D03*
D13*
X23495000Y1625500D03*
D12*
X15875000Y1625500D03*
X18415000Y1625500D03*
D14*
X25263750Y8130000D03*
X25263750Y12130000D03*
X25263750Y11630000D03*
X16963750Y8130000D03*
D15*
X21863750Y5730000D03*
D14*
X16963750Y11630000D03*
X16963750Y7130000D03*
D15*
X18363750Y5730000D03*
D14*
X25263750Y9130000D03*
X25263750Y7130000D03*
D15*
X18363750Y14030000D03*
X22363750Y5730000D03*
D14*
X25263750Y11130000D03*
D15*
X22363750Y14030000D03*
X19863750Y14030000D03*
D14*
X16963750Y8630000D03*
X16963750Y11130000D03*
X16963750Y12130000D03*
D15*
X19363750Y14030000D03*
X20863750Y5730000D03*
X18863750Y14030000D03*
D14*
X16963750Y7630000D03*
D15*
X23863750Y14030000D03*
X20363750Y5730000D03*
D14*
X25263750Y8630000D03*
D15*
X21363750Y14030000D03*
X20863750Y14030000D03*
X18863750Y5730000D03*
D14*
X16963750Y9630000D03*
D15*
X23363750Y14030000D03*
D14*
X25263750Y12630000D03*
X25263750Y7630000D03*
D15*
X19363750Y5730000D03*
X22863750Y5730000D03*
X21863750Y14030000D03*
D14*
X16963750Y9130000D03*
X16963750Y10130000D03*
D15*
X20363750Y14030000D03*
D14*
X25263750Y9630000D03*
D15*
X23863750Y5730000D03*
D14*
X25263750Y10630000D03*
X16963750Y10630000D03*
D15*
X22863750Y14030000D03*
X23363750Y5730000D03*
X19863750Y5730000D03*
D14*
X16963750Y12630000D03*
X25263750Y10130000D03*
D15*
X21363750Y5730000D03*
D10*
X27666000Y10072000D03*
X27666000Y8372000D03*
D16*
X12405000Y10832000D03*
X10455000Y10832000D03*
D17*
X27825000Y5863000D03*
X27825000Y4313000D03*
D18*
X50000000Y3140000D03*
X50000000Y8220000D03*
X50000000Y13300000D03*
D19*
X3431250Y1466500D03*
X1331250Y1466500D03*
D20*
X6331250Y1466500D03*
X4781250Y1466500D03*
D21*
X44672166Y3986300D03*
X46872166Y4936300D03*
X44672166Y5886300D03*
D22*
X27548750Y15040250D03*
X27548750Y12240250D03*
D10*
X43884000Y7418000D03*
X43884000Y9118000D03*
D23*
X31043000Y11443000D03*
X31043000Y8903000D03*
X40507000Y2553000D03*
X40507000Y12713000D03*
X31043000Y3823000D03*
X40507000Y3823000D03*
X40507000Y13983000D03*
X40507000Y5093000D03*
X40507000Y8903000D03*
X40507000Y6363000D03*
X40507000Y10173000D03*
X40507000Y7633000D03*
X31043000Y12713000D03*
X31043000Y5093000D03*
X31043000Y10173000D03*
X40507000Y11443000D03*
X31043000Y6363000D03*
X31043000Y13983000D03*
X31043000Y2553000D03*
X31043000Y7633000D03*
D20*
X6331250Y14959750D03*
X4781250Y14959750D03*
D10*
X42294000Y7418000D03*
X42294000Y9118000D03*
D20*
X43586000Y11130000D03*
X45136000Y11130000D03*
X43586000Y13038000D03*
X45136000Y13038000D03*
D10*
X25599000Y15478000D03*
X25599000Y13778000D03*
D17*
X26394000Y4313000D03*
X26394000Y5863000D03*
D10*
X15398750Y8508000D03*
X15398750Y6808000D03*
X42294000Y11234000D03*
X42294000Y12934000D03*
D19*
X3431250Y14959750D03*
X1331250Y14959750D03*
D24*
X13147500Y8292000D03*
X10347500Y8292000D03*
X13147500Y9242000D03*
X10347500Y9242000D03*
X10347500Y7342000D03*
X13147500Y7342000D03*
D10*
X29256000Y10072000D03*
X29256000Y8372000D03*
D24*
X13147500Y15592000D03*
X10347500Y13692000D03*
X10347500Y14642000D03*
X10347500Y15592000D03*
X13147500Y13692000D03*
D25*
X2250000Y3770000D03*
X7750000Y12670000D03*
X7750000Y3770000D03*
X2250000Y12670000D03*
D26*
X7750000Y9020000D03*
X7750000Y9820000D03*
X7750000Y8220000D03*
X7750000Y6620000D03*
X7750000Y7420000D03*
D22*
X46746000Y11002000D03*
X46746000Y13802000D03*
D17*
X42135000Y2405000D03*
X42135000Y3955000D03*
D11*
X21011250Y15595000D03*
X19311250Y15595000D03*
X22803750Y4165000D03*
X24503750Y4165000D03*
G04 --- BOARD END --- *
%TF.MD5,b52cc4435329470912fb99aaa88adea2*%
M02*
